<?xml version="1.0" encoding="utf-8"?>
<svg version="1.1" xmlns:xlink="http://www.w3.org/1999/xlink" width="16px" height="14px" xmlns="http://www.w3.org/2000/svg">
  <g transform="matrix(1 0 0 1 -112 -272 )">
    <path d="M 4.26666666666667 5  C 4.26666666666667 5.72395833333333  4.49166666666667 6.390625  4.94166666666667 7  C 4.04166666666667 7.02604166666667  3.30555555555556 7.359375  2.73333333333333 8  L 1.61666666666667 8  C 1.16111111111111 8  0.777777777777778 7.89453125  0.466666666666667 7.68359375  C 0.155555555555556 7.47265625  0 7.1640625  0 6.7578125  C 0 4.91927083333333  0.344444444444444 4  1.03333333333333 4  C 1.06666666666667 4  1.1875 4.0546875  1.39583333333333 4.1640625  C 1.60416666666667 4.2734375  1.875 4.38411458333333  2.20833333333333 4.49609375  C 2.54166666666667 4.60807291666667  2.87222222222222 4.6640625  3.2 4.6640625  C 3.57222222222222 4.6640625  3.94166666666667 4.60416666666667  4.30833333333333 4.484375  C 4.28055555555556 4.67708333333333  4.26666666666667 4.84895833333333  4.26666666666667 5  Z M 13.8375 11.16796875  C 13.8569444444444 11.4309895833333  13.8666666666667 11.7005208333333  13.8666666666667 11.9765625  C 13.8666666666667 12.6015625  13.6638888888889 13.0950520833333  13.2583333333333 13.45703125  C 12.8527777777778 13.8190104166667  12.3138888888889 14  11.6416666666667 14  L 4.35833333333333 14  C 3.68611111111111 14  3.14722222222222 13.8190104166667  2.74166666666667 13.45703125  C 2.33611111111111 13.0950520833333  2.13333333333333 12.6015625  2.13333333333333 11.9765625  C 2.13333333333333 11.7005208333333  2.14305555555556 11.4309895833333  2.1625 11.16796875  C 2.18194444444444 10.9049479166667  2.22083333333333 10.62109375  2.27916666666667 10.31640625  C 2.3375 10.01171875  2.41111111111111 9.72916666666667  2.5 9.46875  C 2.58888888888889 9.20833333333333  2.70833333333333 8.95442708333333  2.85833333333333 8.70703125  C 3.00833333333333 8.45963541666667  3.18055555555556 8.24869791666667  3.375 8.07421875  C 3.56944444444444 7.89973958333333  3.80694444444444 7.76041666666667  4.0875 7.65625  C 4.36805555555556 7.55208333333333  4.67777777777778 7.5  5.01666666666667 7.5  C 5.07222222222222 7.5  5.19166666666667 7.55598958333333  5.375 7.66796875  C 5.55833333333333 7.77994791666667  5.76111111111111 7.90494791666667  5.98333333333333 8.04296875  C 6.20555555555556 8.18098958333333  6.50277777777778 8.30598958333333  6.875 8.41796875  C 7.24722222222222 8.52994791666667  7.62222222222222 8.5859375  8 8.5859375  C 8.37777777777778 8.5859375  8.75277777777778 8.52994791666667  9.125 8.41796875  C 9.49722222222222 8.30598958333333  9.79444444444445 8.18098958333333  10.0166666666667 8.04296875  C 10.2388888888889 7.90494791666667  10.4416666666667 7.77994791666667  10.625 7.66796875  C 10.8083333333333 7.55598958333333  10.9277777777778 7.5  10.9833333333333 7.5  C 11.3222222222222 7.5  11.6319444444444 7.55208333333333  11.9125 7.65625  C 12.1930555555556 7.76041666666667  12.4305555555556 7.89973958333333  12.625 8.07421875  C 12.8194444444444 8.24869791666667  12.9916666666667 8.45963541666667  13.1416666666667 8.70703125  C 13.2916666666667 8.95442708333333  13.4111111111111 9.20833333333333  13.5 9.46875  C 13.5888888888889 9.72916666666667  13.6625 10.01171875  13.7208333333333 10.31640625  C 13.7791666666667 10.62109375  13.8180555555556 10.9049479166667  13.8375 11.16796875  Z M 4.70833333333333 0.5859375  C 5.125 0.9765625  5.33333333333333 1.44791666666667  5.33333333333333 2  C 5.33333333333333 2.55208333333333  5.125 3.0234375  4.70833333333333 3.4140625  C 4.29166666666667 3.8046875  3.78888888888889 4  3.2 4  C 2.61111111111111 4  2.10833333333333 3.8046875  1.69166666666667 3.4140625  C 1.275 3.0234375  1.06666666666667 2.55208333333333  1.06666666666667 2  C 1.06666666666667 1.44791666666667  1.275 0.9765625  1.69166666666667 0.5859375  C 2.10833333333333 0.195312500000001  2.61111111111111 0  3.2 0  C 3.78888888888889 0  4.29166666666667 0.195312500000001  4.70833333333333 0.5859375  Z M 10.2625 2.87890625  C 10.8875 3.46484375  11.2 4.171875  11.2 5  C 11.2 5.828125  10.8875 6.53515625  10.2625 7.12109375  C 9.6375 7.70703125  8.88333333333333 8  8 8  C 7.11666666666667 8  6.3625 7.70703125  5.7375 7.12109375  C 5.1125 6.53515625  4.8 5.828125  4.8 5  C 4.8 4.171875  5.1125 3.46484375  5.7375 2.87890625  C 6.3625 2.29296875  7.11666666666667 2  8 2  C 8.88333333333333 2  9.6375 2.29296875  10.2625 2.87890625  Z M 14.9666666666667 4  C 15.6555555555556 4  16 4.91927083333333  16 6.7578125  C 16 7.1640625  15.8444444444444 7.47265625  15.5333333333333 7.68359375  C 15.2222222222222 7.89453125  14.8388888888889 8  14.3833333333333 8  L 13.2666666666667 8  C 12.6944444444444 7.359375  11.9583333333333 7.02604166666667  11.0583333333333 7  C 11.5083333333333 6.390625  11.7333333333333 5.72395833333333  11.7333333333333 5  C 11.7333333333333 4.84895833333333  11.7194444444444 4.67708333333333  11.6916666666667 4.484375  C 12.0583333333333 4.60416666666667  12.4277777777778 4.6640625  12.8 4.6640625  C 13.1277777777778 4.6640625  13.4583333333333 4.60807291666667  13.7916666666667 4.49609375  C 14.125 4.38411458333333  14.3958333333333 4.2734375  14.6041666666667 4.1640625  C 14.8125 4.0546875  14.9333333333333 4  14.9666666666667 4  Z M 14.3083333333333 0.5859375  C 14.725 0.9765625  14.9333333333333 1.44791666666667  14.9333333333333 2  C 14.9333333333333 2.55208333333333  14.725 3.0234375  14.3083333333333 3.4140625  C 13.8916666666667 3.8046875  13.3888888888889 4  12.8 4  C 12.2111111111111 4  11.7083333333333 3.8046875  11.2916666666667 3.4140625  C 10.875 3.0234375  10.6666666666667 2.55208333333333  10.6666666666667 2  C 10.6666666666667 1.44791666666667  10.875 0.9765625  11.2916666666667 0.5859375  C 11.7083333333333 0.195312500000001  12.2111111111111 0  12.8 0  C 13.3888888888889 0  13.8916666666667 0.195312500000001  14.3083333333333 0.5859375  Z " fill-rule="nonzero" fill="#000000" stroke="none" transform="matrix(1 0 0 1 112 272 )" />
  </g>
</svg>