<?xml version="1.0" encoding="utf-8"?>
<svg version="1.1" xmlns:xlink="http://www.w3.org/1999/xlink" width="16px" height="14px" xmlns="http://www.w3.org/2000/svg">
  <g transform="matrix(1 0 0 1 -112 -315 )">
    <path d="M 15.3653846153846 3.20170454545454  C 15.7884615384615 3.63920454545454  16 4.16287878787879  16 4.77272727272727  L 16 11.7727272727273  C 16 12.3825757575758  15.7884615384615 12.90625  15.3653846153846 13.34375  C 14.9423076923077 13.78125  14.4358974358974 14  13.8461538461538 14  L 2.15384615384615 14  C 1.56410256410256 14  1.05769230769231 13.78125  0.634615384615385 13.34375  C 0.211538461538462 12.90625  0 12.3825757575758  0 11.7727272727273  L 0 2.22727272727273  C 0 1.61742424242424  0.211538461538462 1.09375  0.634615384615385 0.65625  C 1.05769230769231 0.21875  1.56410256410256 0  2.15384615384615 0  L 5.23076923076923 0  C 5.82051282051282 0  6.32692307692308 0.21875  6.75 0.65625  C 7.17307692307692 1.09375  7.38461538461539 1.61742424242424  7.38461538461539 2.22727272727273  L 7.38461538461539 2.54545454545454  L 13.8461538461538 2.54545454545454  C 14.4358974358974 2.54545454545454  14.9423076923077 2.76420454545454  15.3653846153846 3.20170454545454  Z " fill-rule="nonzero" fill="#000000" stroke="none" transform="matrix(1 0 0 1 112 315 )" />
  </g>
</svg>