<?xml version="1.0" encoding="utf-8"?>
<svg version="1.1" xmlns:xlink="http://www.w3.org/1999/xlink" width="17px" height="17px" xmlns="http://www.w3.org/2000/svg">
  <g transform="matrix(1 0 0 1 -778 -107 )">
    <path d="M 5.19866071428571 0.673549107142857  C 6.24851190476191 0.224516369047619  7.34895833333333 0  8.5 0  C 9.65104166666667 0  10.7514880952381 0.224516369047619  11.8013392857143 0.673549107142857  C 12.8511904761905 1.12258184523809  13.7555803571429 1.7265625  14.5145089285714 2.48549107142857  C 15.2734375 3.24441964285714  15.8774181547619 4.14880952380952  16.3264508928571 5.19866071428571  C 16.7754836309524 6.2485119047619  17 7.34895833333333  17 8.5  C 17 9.64471726190476  16.7770647321429 10.7420014880952  16.3311941964286 11.7918526785714  C 15.8853236607143 12.8417038690476  15.2829241071429 13.74609375  14.5239955357143 14.5050223214286  C 13.7650669642857 15.2639508928571  12.8606770833333 15.8695126488095  11.8108258928571 16.3217075892857  C 10.760974702381 16.7739025297619  9.65736607142857 17  8.5 17  C 7.34263392857143 17  6.23902529761905 16.7754836309524  5.18917410714286 16.3264508928571  C 4.13932291666667 15.8774181547619  3.23651413690476 15.2718563988095  2.48074776785714 14.509765625  C 1.72498139880952 13.7476748511905  1.1225818452381 12.8432849702381  0.673549107142857 11.7965959821429  C 0.224516369047619 10.7499069940476  0 9.65104166666667  0 8.5  C 0 7.34895833333333  0.224516369047619 6.2485119047619  0.673549107142857 5.19866071428571  C 1.1225818452381 4.14880952380952  1.7265625 3.24441964285714  2.48549107142857 2.48549107142857  C 3.24441964285714 1.7265625  4.14880952380952 1.12258184523809  5.19866071428571 0.673549107142857  Z M 11.4693080357143 9.71428571428571  C 12.9871651785714 9.71428571428571  13.9547991071429 10.7483258928571  14.3722098214286 12.81640625  C 15.3145461309524 11.5199032738095  15.7857142857143 10.0811011904762  15.7857142857143 8.5  C 15.7857142857143 7.51339285714286  15.5928199404762 6.57105654761905  15.20703125 5.67299107142857  C 14.8212425595238 4.77492559523809  14.3026413690476 4.00018601190476  13.6512276785714 3.34877232142857  C 12.9998139880952 2.69735863095238  12.2250744047619 2.17875744047619  11.3270089285714 1.79296875  C 10.428943452381 1.40718005952381  9.48660714285714 1.21428571428571  8.5 1.21428571428571  C 7.51339285714286 1.21428571428571  6.57105654761905 1.40718005952381  5.67299107142857 1.79296875  C 4.7749255952381 2.17875744047619  4.00018601190476 2.69735863095238  3.34877232142857 3.34877232142857  C 2.69735863095238 4.00018601190476  2.17875744047619 4.77492559523809  1.79296875 5.67299107142857  C 1.40718005952381 6.57105654761905  1.21428571428571 7.51339285714286  1.21428571428571 8.5  C 1.21428571428571 10.0811011904762  1.68545386904762 11.5199032738095  2.62779017857143 12.81640625  C 3.04520089285714 10.7483258928571  4.01283482142857 9.71428571428571  5.53069196428571 9.71428571428571  C 6.35918898809524 10.5238095238095  7.34895833333333 10.9285714285714  8.5 10.9285714285714  C 9.65104166666667 10.9285714285714  10.6408110119048 10.5238095238095  11.4693080357143 9.71428571428571  Z M 11.0756138392857 9.25418526785714  C 11.787109375 8.54268973214286  12.1428571428571 7.68415178571429  12.1428571428571 6.67857142857143  C 12.1428571428571 5.67299107142857  11.787109375 4.814453125  11.0756138392857 4.10295758928571  C 10.3641183035714 3.39146205357143  9.50558035714286 3.03571428571429  8.5 3.03571428571429  C 7.49441964285714 3.03571428571429  6.63588169642857 3.39146205357143  5.92438616071429 4.10295758928571  C 5.212890625 4.814453125  4.85714285714286 5.67299107142857  4.85714285714286 6.67857142857143  C 4.85714285714286 7.68415178571429  5.212890625 8.54268973214286  5.92438616071429 9.25418526785714  C 6.63588169642857 9.96568080357143  7.49441964285714 10.3214285714286  8.5 10.3214285714286  C 9.50558035714286 10.3214285714286  10.3641183035714 9.96568080357143  11.0756138392857 9.25418526785714  Z " fill-rule="nonzero" fill="#000000" stroke="none" transform="matrix(1 0 0 1 778 107 )" />
  </g>
</svg>