<?xml version="1.0" encoding="utf-8"?>
<svg version="1.1" xmlns:xlink="http://www.w3.org/1999/xlink" width="17px" height="22px" xmlns="http://www.w3.org/2000/svg">
  <g transform="matrix(1 0 0 1 -75 -432 )">
    <path d="M 7.26927083333333 13.2549687677456  C 7.71197916666667 12.6303236797274  7.93333333333333 11.8765852735188  7.93333333333333 10.9937535491198  C 7.93333333333333 10.1109218247208  7.71197916666667 9.35718341851221  7.26927083333333 8.73253833049404  C 6.8265625 8.10789324247586  6.29236111111111 7.79557069846678  5.66666666666667 7.79557069846678  C 5.04097222222222 7.79557069846678  4.50677083333333 8.10789324247586  4.0640625 8.73253833049404  C 3.62135416666667 9.35718341851221  3.4 10.1109218247208  3.4 10.9937535491198  C 3.4 11.8765852735188  3.62135416666667 12.6303236797274  4.0640625 13.2549687677456  C 4.50677083333333 13.8796138557638  5.04097222222222 14.1919363997729  5.66666666666667 14.1919363997729  C 6.29236111111111 14.1919363997729  6.8265625 13.8796138557638  7.26927083333333 13.2549687677456  Z M 14.4013020833333 18.5207268597388  C 14.62265625 18.2084043157297  14.7333333333333 17.8315351126254  14.7333333333333 17.3901192504259  C 14.7333333333333 16.9570319894  14.6211805555556 16.5822449365891  14.396875 16.2657580919932  C 14.1725694444444 15.9492712473973  13.9069444444444 15.7910278250994  13.6 15.7910278250994  C 13.2930555555556 15.7910278250994  13.0274305555556 15.9492712473973  12.803125 16.2657580919932  C 12.5788194444444 16.5822449365891  12.4666666666667 16.9570319894  12.4666666666667 17.3901192504259  C 12.4666666666667 17.8315351126254  12.57734375 18.2084043157297  12.7986979166667 18.5207268597388  C 13.0200520833333 18.8330494037479  13.2871527777778 18.9892106757524  13.6 18.9892106757524  C 13.9128472222222 18.9892106757524  14.1799479166667 18.8330494037479  14.4013020833333 18.5207268597388  Z M 14.4013020833333 5.72799545712663  C 14.62265625 5.41567291311755  14.7333333333333 5.03880371001325  14.7333333333333 4.59738784781374  C 14.7333333333333 4.16430058678781  14.6211805555556 3.78951353397691  14.396875 3.47302668938103  C 14.1725694444444 3.15653984478516  13.9069444444444 2.99829642248722  13.6 2.99829642248722  C 13.2930555555556 2.99829642248722  13.0274305555556 3.15653984478516  12.803125 3.47302668938103  C 12.5788194444444 3.78951353397691  12.4666666666667 4.16430058678781  12.4666666666667 4.59738784781374  C 12.4666666666667 5.03880371001325  12.57734375 5.41567291311755  12.7986979166667 5.72799545712663  C 13.0200520833333 6.04031800113572  13.2871527777778 6.19647927314026  13.6 6.19647927314026  C 13.9128472222222 6.19647927314026  14.1799479166667 6.04031800113572  14.4013020833333 5.72799545712663  Z M 11.2713541666667 9.61328790459966  C 11.3126736111111 9.68408101457505  11.3333333333333 9.76528487601741  11.3333333333333 9.85689948892675  L 11.3333333333333 12.168086314594  C 11.3333333333333 12.2513723263297  11.3126736111111 12.3325761877721  11.2713541666667 12.4116978989211  C 11.2300347222222 12.49081961007  11.1828125 12.5345447662313  11.1296875 12.5428733674049  L 9.75729166666667 12.8427030096536  C 9.69236111111111 13.1342040507288  9.59791666666667 13.4506908953246  9.47395833333333 13.7921635434412  C 9.67465277777778 14.1919363997729  9.94027777777778 14.6708309672535  10.2708333333333 15.228847245883  C 10.3121527777778 15.3204618587924  10.3328125 15.4037478705281  10.3328125 15.4787052810903  C 10.3328125 15.5786484951732  10.3121527777778 15.6577702063222  10.2708333333333 15.7160704145372  C 10.1350694444444 15.9659284497445  9.89157986111111 16.338633352262  9.54036458333333 16.8341851220897  C 9.18914930555556 17.3297368919175  8.95746527777778 17.5775127768313  8.8453125 17.5775127768313  C 8.78038194444444 17.5775127768313  8.71840277777778 17.5483626727238  8.659375 17.4900624645088  L 7.64114583333333 16.3657013060761  C 7.42274305555556 16.523944728374  7.19548611111111 16.6530380465645  6.959375 16.7529812606474  C 6.89444444444445 17.6524701873935  6.8265625 18.2979367783456  6.75572916666667 18.6893810335037  C 6.71440972222222 18.8892674616695  6.62586805555556 18.9892106757524  6.49010416666667 18.9892106757524  L 4.84322916666667 18.9892106757524  C 4.77829861111111 18.9892106757524  4.71927083333333 18.9579784213515  4.66614583333333 18.8955139125497  C 4.61302083333333 18.8330494037479  4.58350694444444 18.7601741434791  4.57760416666667 18.6768881317433  L 4.37395833333333 16.7654741624077  C 4.17326388888889 16.682188150672  3.95190972222222 16.5530948324815  3.70989583333333 16.3781942078365  L 2.66510416666667 17.4900624645088  C 2.62378472222222 17.5483626727238  2.56475694444444 17.5775127768313  2.48802083333333 17.5775127768313  C 2.42309027777778 17.5775127768313  2.36111111111111 17.544198372137  2.30208333333333 17.4775695627484  C 1.45208333333333 16.3698656066629  1.02708333333333 15.7035775127768  1.02708333333333 15.4787052810903  C 1.02708333333333 15.4037478705281  1.04774305555556 15.3246261593791  1.0890625 15.2413401476434  C 1.14809027777778 15.1247397312133  1.26909722222222 14.9040318001136  1.45208333333333 14.5792163543441  C 1.63506944444444 14.2544009085747  1.77378472222222 14.0003785727806  1.86822916666667 13.817149346962  C 1.73246527777778 13.4506908953246  1.62916666666667 13.109218247208  1.55833333333333 12.7927314026122  L 0.2125 12.4929017603634  C 0.153472222222222 12.4845731591899  0.103298611111111 12.4450123036154  0.0619791666666667 12.37421919364  C 0.0206597222222222 12.3034260836646  0 12.2222222222222  0 12.1306076093129  L 0 9.81942078364566  C 0 9.7361347719099  0.0206597222222222 9.65493091046754  0.0619791666666667 9.57580919931857  C 0.103298611111111 9.4966874881696  0.150520833333333 9.45296233200833  0.203645833333333 9.44463373083475  L 1.57604166666667 9.14480408858603  C 1.64097222222222 8.85330304751088  1.73541666666667 8.53681620291501  1.859375 8.19534355479841  C 1.65868055555556 7.79557069846678  1.39305555555556 7.31667613098618  1.0625 6.75865985235662  C 1.02118055555556 6.66704523944728  1.00052083333333 6.58375922771153  1.00052083333333 6.50880181714935  C 1.00052083333333 6.40885860306644  1.02118055555556 6.32557259133068  1.0625 6.25894378194208  C 1.19236111111111 6.00908574673481  1.434375 5.63846299451069  1.78854166666667 5.14707552526973  C 2.14270833333333 4.65568805602877  2.37586805555556 4.40999432140829  2.48802083333333 4.40999432140829  C 2.55295138888889 4.40999432140829  2.61493055555556 4.4391444255158  2.67395833333333 4.49744463373084  L 3.6921875 5.62180579216354  C 3.89288194444444 5.47189097103918  4.12013888888889 5.33863335226197  4.37395833333333 5.22203293583191  C 4.43888888888889 4.32254400908575  4.50677083333333 3.68124171872042  4.57760416666667 3.29812606473595  C 4.61892361111111 3.09823963657013  4.70746527777778 2.99829642248722  4.84322916666667 2.99829642248722  L 6.49010416666667 2.99829642248722  C 6.55503472222222 2.99829642248722  6.6140625 3.02952867688813  6.6671875 3.09199318568995  C 6.7203125 3.15445769449176  6.74982638888889 3.22733295476055  6.75572916666667 3.31061896649631  L 6.959375 5.22203293583191  C 7.16006944444445 5.30531894756767  7.38142361111111 5.43441226575809  7.6234375 5.60931289040318  L 8.66822916666667 4.49744463373084  C 8.71545138888889 4.4391444255158  8.77447916666667 4.40999432140829  8.8453125 4.40999432140829  C 8.91024305555556 4.40999432140829  8.97222222222222 4.44330872610259  9.03125 4.5099375354912  C 9.88125 5.61764149157675  10.30625 6.28392958546281  10.30625 6.50880181714935  C 10.30625 6.57543062653795  10.2855902777778 6.65455233768692  10.2442708333333 6.74616695059625  C 10.1734375 6.87942456937346  10.0494791666667 7.10429680106  9.87239583333333 7.42078364565588  C 9.6953125 7.73727049025175  9.5625 7.98712852545902  9.47395833333333 8.17035775127768  C 9.60972222222222 8.57013060760931  9.71006944444444 8.91160325572591  9.775 9.19477569562748  L 11.1208333333333 9.48211243611584  C 11.1798611111111 9.49876963846299  11.2300347222222 9.54249479462427  11.2713541666667 9.61328790459966  Z M 15.6807291666667 16.1283361726292  C 16.5602430555556 16.2532651902328  17 16.3823585084232  17 16.5156161272005  L 17 18.2646223736513  C 17 18.3978799924285  16.5602430555556 18.526973310619  15.6807291666667 18.6519023282226  C 15.6098958333333 18.8767745599091  15.5213541666667 19.0933181904221  15.4151041666667 19.3015332197615  C 15.7161458333333 20.2426651523755  15.8666666666667 20.8173386333523  15.8666666666667 21.0255536626917  C 15.8666666666667 21.058868067386  15.8548611111111 21.0880181714935  15.83125 21.1130039750142  C 15.1111111111111 21.7043346583381  14.7451388888889 22  14.7333333333333 22  C 14.6861111111111 22  14.5503472222222 21.804277872421  14.3260416666667 21.4128336172629  C 14.1017361111111 21.0213893621049  13.9482638888889 20.7382169222033  13.865625 20.5633162975582  C 13.7475694444444 20.5799734999054  13.6590277777778 20.5883021010789  13.6 20.5883021010789  C 13.5409722222222 20.5883021010789  13.4524305555556 20.5799734999054  13.334375 20.5633162975582  C 13.2517361111111 20.7382169222033  13.0982638888889 21.0213893621049  12.8739583333333 21.4128336172629  C 12.6496527777778 21.804277872421  12.5138888888889 22  12.4666666666667 22  C 12.4548611111111 22  12.0888888888889 21.7043346583381  11.36875 21.1130039750142  C 11.3451388888889 21.0880181714935  11.3333333333333 21.058868067386  11.3333333333333 21.0255536626917  C 11.3333333333333 20.8173386333523  11.4838541666667 20.2426651523755  11.7848958333333 19.3015332197615  C 11.6786458333333 19.0933181904221  11.5901041666667 18.8767745599091  11.5192708333333 18.6519023282226  C 10.6397569444444 18.526973310619  10.2 18.3978799924285  10.2 18.2646223736513  L 10.2 16.5156161272005  C 10.2 16.3823585084232  10.6397569444444 16.2532651902328  11.5192708333333 16.1283361726292  C 11.5960069444444 15.8868067385955  11.6845486111111 15.6702631080825  11.7848958333333 15.4787052810903  C 11.4838541666667 14.5375733484762  11.3333333333333 13.9628998674995  11.3333333333333 13.7546848381601  C 11.3333333333333 13.7213704334658  11.3451388888889 13.6922203293583  11.36875 13.6672345258376  C 11.3923611111111 13.6505773234904  11.4956597222222 13.5672913117547  11.6786458333333 13.4173764906303  C 11.8616319444444 13.267461669506  12.0357638888889 13.1258754495552  12.2010416666667 12.992617830778  C 12.3663194444444 12.8593602120008  12.4548611111111 12.7927314026122  12.4666666666667 12.7927314026122  C 12.5138888888889 12.7927314026122  12.6496527777778 12.9863713798978  12.8739583333333 13.3736513344691  C 13.0982638888889 13.7609312890403  13.2517361111111 14.0420215786485  13.334375 14.2169222032936  C 13.4524305555556 14.2002650009464  13.5409722222222 14.1919363997729  13.6 14.1919363997729  C 13.6590277777778 14.1919363997729  13.7475694444444 14.2002650009464  13.865625 14.2169222032936  C 14.1666666666667 13.6255915199697  14.4381944444444 13.1591898542495  14.6802083333333 12.8177172061329  L 14.7333333333333 12.7927314026122  C 14.7569444444444 12.7927314026122  15.1229166666667 13.0842324436873  15.83125 13.6672345258376  C 15.8548611111111 13.6922203293583  15.8666666666667 13.7213704334658  15.8666666666667 13.7546848381601  C 15.8666666666667 13.9628998674995  15.7161458333333 14.5375733484762  15.4151041666667 15.4787052810903  C 15.5154513888889 15.6702631080825  15.6039930555556 15.8868067385955  15.6807291666667 16.1283361726292  Z M 15.6807291666667 3.33560477001704  C 16.5602430555556 3.46053378762067  17 3.58962710581109  17 3.7228847245883  L 17 5.47189097103918  C 17 5.60514858981639  16.5602430555556 5.73424190800681  15.6807291666667 5.85917092561045  C 15.6098958333333 6.08404315729699  15.5213541666667 6.30058678780996  15.4151041666667 6.50880181714935  C 15.7161458333333 7.44993374976339  15.8666666666667 8.02460723074011  15.8666666666667 8.2328222600795  C 15.8666666666667 8.2661366647738  15.8548611111111 8.29528676888132  15.83125 8.32027257240204  C 15.1111111111111 8.91160325572591  14.7451388888889 9.20726859738785  14.7333333333333 9.20726859738785  C 14.6861111111111 9.20726859738785  14.5503472222222 9.01154646980882  14.3260416666667 8.62010221465077  C 14.1017361111111 8.22865795949271  13.9482638888889 7.94548551959114  13.865625 7.77058489494605  C 13.7475694444444 7.7872420972932  13.6590277777778 7.79557069846678  13.6 7.79557069846678  C 13.5409722222222 7.79557069846678  13.4524305555556 7.7872420972932  13.334375 7.77058489494605  C 13.2517361111111 7.94548551959114  13.0982638888889 8.22865795949271  12.8739583333333 8.62010221465077  C 12.6496527777778 9.01154646980882  12.5138888888889 9.20726859738785  12.4666666666667 9.20726859738785  C 12.4548611111111 9.20726859738785  12.0888888888889 8.91160325572591  11.36875 8.32027257240204  C 11.3451388888889 8.29528676888132  11.3333333333333 8.2661366647738  11.3333333333333 8.2328222600795  C 11.3333333333333 8.02460723074011  11.4838541666667 7.44993374976339  11.7848958333333 6.50880181714935  C 11.6786458333333 6.30058678780996  11.5901041666667 6.08404315729699  11.5192708333333 5.85917092561045  C 10.6397569444444 5.73424190800681  10.2 5.60514858981639  10.2 5.47189097103918  L 10.2 3.7228847245883  C 10.2 3.58962710581109  10.6397569444444 3.46053378762067  11.5192708333333 3.33560477001704  C 11.5960069444444 3.09407533598334  11.6845486111111 2.87753170547037  11.7848958333333 2.68597387847814  C 11.4838541666667 1.74484194586409  11.3333333333333 1.17016846488737  11.3333333333333 0.961953435547985  C 11.3333333333333 0.928639030853681  11.3451388888889 0.899488926746168  11.36875 0.874503123225441  C 11.3923611111111 0.857845920878286  11.4956597222222 0.774559909142533  11.6786458333333 0.624645088018172  C 11.8616319444444 0.474730266893811  12.0357638888889 0.333144046943022  12.2010416666667 0.199886428165815  C 12.3663194444444 0.0666288093886034  12.4548611111111 0  12.4666666666667 0  C 12.5138888888889 0  12.6496527777778 0.193639977285632  12.8739583333333 0.580919931856899  C 13.0982638888889 0.968199886428165  13.2517361111111 1.24929017603634  13.334375 1.42419080068143  C 13.4524305555556 1.40753359833428  13.5409722222222 1.39920499716071  13.6 1.39920499716071  C 13.6590277777778 1.39920499716071  13.7475694444444 1.40753359833428  13.865625 1.42419080068143  C 14.1666666666667 0.832860117357559  14.4381944444444 0.366458451637326  14.6802083333333 0.0249858035207269  L 14.7333333333333 0  C 14.7569444444444 0  15.1229166666667 0.291501041075145  15.83125 0.874503123225441  C 15.8548611111111 0.899488926746168  15.8666666666667 0.928639030853681  15.8666666666667 0.961953435547985  C 15.8666666666667 1.17016846488737  15.7161458333333 1.74484194586409  15.4151041666667 2.68597387847814  C 15.5154513888889 2.87753170547037  15.6039930555556 3.09407533598334  15.6807291666667 3.33560477001704  Z " fill-rule="nonzero" fill="#000000" stroke="none" transform="matrix(1 0 0 1 75 432 )" />
  </g>
</svg>