<?xml version="1.0" encoding="utf-8"?>
<svg version="1.1" xmlns:xlink="http://www.w3.org/1999/xlink" width="18px" height="15px" xmlns="http://www.w3.org/2000/svg">
  <g transform="matrix(1 0 0 1 -74 -371 )">
    <path d="M 16.3125 13.3380681818182  C 16.5144230769231 13.1392045454545  16.6153846153846 12.8977272727273  16.6153846153846 12.6136363636364  L 16.6153846153846 5.11363636363636  C 16.6153846153846 4.82954545454545  16.5144230769231 4.58806818181818  16.3125 4.38920454545454  C 16.1105769230769 4.19034090909091  15.8653846153846 4.09090909090909  15.5769230769231 4.09090909090909  L 7.96153846153846 4.09090909090909  C 7.67307692307692 4.09090909090909  7.42788461538462 3.99147727272727  7.22596153846154 3.79261363636364  C 7.02403846153846 3.59375  6.92307692307692 3.35227272727273  6.92307692307692 3.06818181818182  L 6.92307692307692 2.38636363636364  C 6.92307692307692 2.10227272727273  6.82211538461539 1.86079545454545  6.62019230769231 1.66193181818182  C 6.41826923076923 1.46306818181818  6.17307692307692 1.36363636363636  5.88461538461539 1.36363636363636  L 2.42307692307692 1.36363636363636  C 2.13461538461538 1.36363636363636  1.88942307692308 1.46306818181818  1.6875 1.66193181818182  C 1.48557692307692 1.86079545454545  1.38461538461538 2.10227272727273  1.38461538461538 2.38636363636364  L 1.38461538461538 12.6136363636364  C 1.38461538461538 12.8977272727273  1.48557692307692 13.1392045454545  1.6875 13.3380681818182  C 1.88942307692308 13.5369318181818  2.13461538461538 13.6363636363636  2.42307692307692 13.6363636363636  L 15.5769230769231 13.6363636363636  C 15.8653846153846 13.6363636363636  16.1105769230769 13.5369318181818  16.3125 13.3380681818182  Z M 17.2860576923077 3.43039772727273  C 17.7620192307692 3.89914772727273  18 4.46022727272727  18 5.11363636363636  L 18 12.6136363636364  C 18 13.2670454545455  17.7620192307692 13.828125  17.2860576923077 14.296875  C 16.8100961538462 14.765625  16.2403846153846 15  15.5769230769231 15  L 2.42307692307692 15  C 1.75961538461538 15  1.18990384615385 14.765625  0.713942307692308 14.296875  C 0.237980769230769 13.828125  0 13.2670454545455  0 12.6136363636364  L 0 2.38636363636364  C 0 1.73295454545454  0.237980769230769 1.171875  0.713942307692308 0.703125  C 1.18990384615385 0.234375  1.75961538461538 0  2.42307692307692 0  L 5.88461538461539 0  C 6.54807692307692 0  7.11778846153846 0.234375  7.59375 0.703125  C 8.06971153846154 1.171875  8.30769230769231 1.73295454545454  8.30769230769231 2.38636363636364  L 8.30769230769231 2.72727272727273  L 15.5769230769231 2.72727272727273  C 16.2403846153846 2.72727272727273  16.8100961538462 2.96164772727273  17.2860576923077 3.43039772727273  Z " fill-rule="nonzero" fill="#000000" stroke="none" transform="matrix(1 0 0 1 74 371 )" />
  </g>
</svg>