<?xml version="1.0" encoding="utf-8"?>
<svg version="1.1" xmlns:xlink="http://www.w3.org/1999/xlink" width="17px" height="21px" xmlns="http://www.w3.org/2000/svg">
  <g transform="matrix(1 0 0 1 -75 -502 )">
    <path d="M 12.7942708333333 0.796875000000001  L 16.2473958333333 4.453125  C 16.4539930555556 4.671875  16.6310763888889 4.96875  16.7786458333333 5.34375  C 16.9262152777778 5.71875  17 6.0625  17 6.375  L 17 19.875  C 17 20.1875  16.8967013888889 20.453125  16.6901041666667 20.671875  C 16.4835069444444 20.890625  16.2326388888889 21  15.9375 21  L 1.0625 21  C 0.767361111111111 21  0.516493055555556 20.890625  0.309895833333333 20.671875  C 0.103298611111111 20.453125  0 20.1875  0 19.875  L 0 1.125  C 0 0.812499999999999  0.103298611111111 0.546874999999999  0.309895833333333 0.328125  C 0.516493055555556 0.109375000000001  0.767361111111111 0  1.0625 0  L 10.9791666666667 0  C 11.2743055555556 0  11.5989583333333 0.0781250000000009  11.953125 0.234375  C 12.3072916666667 0.390625  12.5876736111111 0.578124999999999  12.7942708333333 0.796875000000001  Z M 11.787109375 1.8515625  C 11.6985677083333 1.7578125  11.5473090277778 1.671875  11.3333333333333 1.59375  L 11.3333333333333 6  L 15.4947916666667 6  C 15.4210069444444 5.7734375  15.33984375 5.61328125  15.2513020833333 5.51953125  L 11.787109375 1.8515625  Z M 1.41666666666667 19.5  L 15.5833333333333 19.5  L 15.5833333333333 7.5  L 10.9791666666667 7.5  C 10.6840277777778 7.5  10.4331597222222 7.390625  10.2265625 7.171875  C 10.0199652777778 6.953125  9.91666666666667 6.6875  9.91666666666667 6.375  L 9.91666666666667 1.5  L 1.41666666666667 1.5  L 1.41666666666667 19.5  Z M 4.25 10.125  L 4.25 9.375  C 4.25 9.265625  4.283203125 9.17578125  4.349609375 9.10546875  C 4.416015625 9.03515625  4.50086805555556 9  4.60416666666667 9  L 12.3958333333333 9  C 12.4991319444444 9  12.583984375 9.03515625  12.650390625 9.10546875  C 12.716796875 9.17578125  12.75 9.265625  12.75 9.375  L 12.75 10.125  C 12.75 10.234375  12.716796875 10.32421875  12.650390625 10.39453125  C 12.583984375 10.46484375  12.4991319444444 10.5  12.3958333333333 10.5  L 4.60416666666667 10.5  C 4.50086805555556 10.5  4.416015625 10.46484375  4.349609375 10.39453125  C 4.283203125 10.32421875  4.25 10.234375  4.25 10.125  Z M 4.60416666666667 12  L 12.3958333333333 12  C 12.4991319444444 12  12.583984375 12.03515625  12.650390625 12.10546875  C 12.716796875 12.17578125  12.75 12.265625  12.75 12.375  L 12.75 13.125  C 12.75 13.234375  12.716796875 13.32421875  12.650390625 13.39453125  C 12.583984375 13.46484375  12.4991319444444 13.5  12.3958333333333 13.5  L 4.60416666666667 13.5  C 4.50086805555556 13.5  4.416015625 13.46484375  4.349609375 13.39453125  C 4.283203125 13.32421875  4.25 13.234375  4.25 13.125  L 4.25 12.375  C 4.25 12.265625  4.283203125 12.17578125  4.349609375 12.10546875  C 4.416015625 12.03515625  4.50086805555556 12  4.60416666666667 12  Z M 4.60416666666667 15  L 12.3958333333333 15  C 12.4991319444444 15  12.583984375 15.03515625  12.650390625 15.10546875  C 12.716796875 15.17578125  12.75 15.265625  12.75 15.375  L 12.75 16.125  C 12.75 16.234375  12.716796875 16.32421875  12.650390625 16.39453125  C 12.583984375 16.46484375  12.4991319444444 16.5  12.3958333333333 16.5  L 4.60416666666667 16.5  C 4.50086805555556 16.5  4.416015625 16.46484375  4.349609375 16.39453125  C 4.283203125 16.32421875  4.25 16.234375  4.25 16.125  L 4.25 15.375  C 4.25 15.265625  4.283203125 15.17578125  4.349609375 15.10546875  C 4.416015625 15.03515625  4.50086805555556 15  4.60416666666667 15  Z " fill-rule="nonzero" fill="#000000" stroke="none" transform="matrix(1 0 0 1 75 502 )" />
  </g>
</svg>