<?xml version="1.0" encoding="utf-8"?>
<svg version="1.1" xmlns:xlink="http://www.w3.org/1999/xlink" width="17px" height="21px" xmlns="http://www.w3.org/2000/svg">
  <defs>
    <radialGradient cx="8.5" cy="20.16" r="0.84" gradientTransform="matrix(0 1 -0.631428571428573 0 21.2296 11.66 )" gradientUnits="userSpaceOnUse" id="RadialGradient1">
      <stop id="Stop2" stop-color="#ffffff" offset="0" />
      <stop id="Stop3" stop-color="#000000" offset="1" />
    </radialGradient>
  </defs>
  <g transform="matrix(1 0 0 1 -75 -566 )">
    <path d="M 2.33844866071429 17.3235085227273  C 2.39853050595238 17.41796875  2.42857142857143 17.5298295454545  2.42857142857143 17.6590909090909  L 2.42857142857143 20.5227272727273  C 2.42857142857143 20.6519886363636  2.39853050595238 20.7638494318182  2.33844866071429 20.8583096590909  C 2.27836681547619 20.9527698863636  2.20721726190476 21  2.125 21  L 0.303571428571429 21  C 0.221354166666667 21  0.150204613095238 20.9527698863636  0.0901227678571429 20.8583096590909  C 0.0300409226190476 20.7638494318182  0 20.6519886363636  0 20.5227272727273  L 0 17.6590909090909  C 0 17.5298295454545  0.0300409226190476 17.41796875  0.0901227678571429 17.3235085227273  C 0.150204613095238 17.2290482954545  0.221354166666667 17.1818181818182  0.303571428571429 17.1818181818182  L 2.125 17.1818181818182  C 2.20721726190476 17.1818181818182  2.27836681547619 17.2290482954545  2.33844866071429 17.3235085227273  Z M 2.33844866071429 11.5962357954545  C 2.39853050595238 11.6906960227273  2.42857142857143 11.8025568181818  2.42857142857143 11.9318181818182  L 2.42857142857143 14.7954545454545  C 2.42857142857143 14.9247159090909  2.39853050595238 15.0365767045454  2.33844866071429 15.1310369318182  C 2.27836681547619 15.2254971590909  2.20721726190476 15.2727272727273  2.125 15.2727272727273  L 0.303571428571429 15.2727272727273  C 0.221354166666667 15.2727272727273  0.150204613095238 15.2254971590909  0.0901227678571429 15.1310369318182  C 0.0300409226190476 15.0365767045454  0 14.9247159090909  0 14.7954545454545  L 0 11.9318181818182  C 0 11.8025568181818  0.0300409226190476 11.6906960227273  0.0901227678571429 11.5962357954545  C 0.150204613095238 11.5017755681818  0.221354166666667 11.4545454545455  0.303571428571429 11.4545454545455  L 2.125 11.4545454545455  C 2.20721726190476 11.4545454545455  2.27836681547619 11.5017755681818  2.33844866071429 11.5962357954545  Z M 2.33844866071429 5.86896306818182  C 2.39853050595238 5.96342329545454  2.42857142857143 6.07528409090909  2.42857142857143 6.20454545454545  L 2.42857142857143 9.06818181818182  C 2.42857142857143 9.19744318181818  2.39853050595238 9.30930397727273  2.33844866071429 9.40376420454545  C 2.27836681547619 9.49822443181818  2.20721726190476 9.54545454545455  2.125 9.54545454545455  L 0.303571428571429 9.54545454545455  C 0.221354166666667 9.54545454545455  0.150204613095238 9.49822443181818  0.0901227678571429 9.40376420454545  C 0.0300409226190476 9.30930397727273  0 9.19744318181818  0 9.06818181818182  L 0 6.20454545454545  C 0 6.07528409090909  0.0300409226190476 5.96342329545454  0.0901227678571429 5.86896306818182  C 0.150204613095238 5.77450284090909  0.221354166666667 5.72727272727273  0.303571428571429 5.72727272727273  L 2.125 5.72727272727273  C 2.20721726190476 5.72727272727273  2.27836681547619 5.77450284090909  2.33844866071429 5.86896306818182  Z M 16.9098772321429 17.3235085227273  C 16.969959077381 17.41796875  17 17.5298295454545  17 17.6590909090909  L 17 20.5227272727273  C 17 20.6519886363636  16.969959077381 20.7638494318182  16.9098772321429 20.8583096590909  C 16.8497953869048 20.9527698863636  16.7786458333333 21  16.6964285714286 21  L 3.94642857142857 21  C 3.86421130952381 21  3.79306175595238 20.9527698863636  3.73297991071429 20.8583096590909  C 3.67289806547619 20.7638494318182  3.64285714285714 20.6519886363636  3.64285714285714 20.5227272727273  L 3.64285714285714 17.6590909090909  C 3.64285714285714 17.5298295454545  3.67289806547619 17.41796875  3.73297991071429 17.3235085227273  C 3.79306175595238 17.2290482954545  3.86421130952381 17.1818181818182  3.94642857142857 17  L 16.6964285714286 17  C 16.7786458333333 17.1818181818182  16.8497953869048 17.2290482954545  16.9098772321429 17.3235085227273  Z M 2.33844866071429 0.14169034090909  C 2.39853050595238 0.236150568181818  2.42857142857143 0.348011363636362  2.42857142857143 0.477272727272727  L 2.42857142857143 3.34090909090909  C 2.42857142857143 3.47017045454545  2.39853050595238 3.58203125  2.33844866071429 3.67649147727273  C 2.27836681547619 3.77095170454545  2.20721726190476 3.81818181818182  2.125 3.81818181818182  L 0.303571428571429 3.81818181818182  C 0.221354166666667 3.81818181818182  0.150204613095238 3.77095170454545  0.0901227678571429 3.67649147727273  C 0.0300409226190476 3.58203125  0 3.47017045454545  0 3.34090909090909  L 0 0.477272727272727  C 0 0.348011363636362  0.0300409226190476 0.236150568181818  0.0901227678571429 0.14169034090909  C 0.150204613095238 0.0472301136363603  0.221354166666667 0  0.303571428571429 0  L 2.125 0  C 2.20721726190476 0  2.27836681547619 0.0472301136363603  2.33844866071429 0.14169034090909  Z M 16.9098772321429 11.5962357954545  C 16.969959077381 11.6906960227273  17 11.8025568181818  17 11.9318181818182  L 17 14.7954545454545  C 17 14.9247159090909  16.969959077381 15.0365767045454  16.9098772321429 15.1310369318182  C 16.8497953869048 15.2254971590909  16.7786458333333 15.2727272727273  16.6964285714286 15  L 3.94642857142857 15  C 3.86421130952381 15.2727272727273  3.79306175595238 15.2254971590909  3.73297991071429 15.1310369318182  C 3.67289806547619 15.0365767045454  3.64285714285714 14.9247159090909  3.64285714285714 14.7954545454545  L 3.64285714285714 11.9318181818182  C 3.64285714285714 11.8025568181818  3.67289806547619 11.6906960227273  3.73297991071429 11.5962357954545  C 3.79306175595238 11.5017755681818  3.86421130952381 11.4545454545455  3.94642857142857 11.4545454545455  L 16.6964285714286 11.4545454545455  C 16.7786458333333 11.4545454545455  16.8497953869048 11.5017755681818  16.9098772321429 11.5962357954545  Z M 16.9098772321429 5.86896306818182  C 16.969959077381 5.96342329545454  17 6.07528409090909  17 6.20454545454545  L 17 9.06818181818182  C 17 9.19744318181818  16.969959077381 9.30930397727273  16.9098772321429 9.40376420454545  C 16.8497953869048 9.49822443181818  16.7786458333333 9.54545454545455  16.6964285714286 9.54545454545455  L 3.94642857142857 9.54545454545455  C 3.86421130952381 9.54545454545455  3.79306175595238 9.49822443181818  3.73297991071429 9.40376420454545  C 3.67289806547619 9.30930397727273  3.64285714285714 9.19744318181818  3.64285714285714 9.06818181818182  L 3.64285714285714 6.20454545454545  C 3.64285714285714 6.07528409090909  3.67289806547619 5.96342329545454  3.73297991071429 5.86896306818182  C 3.79306175595238 5.77450284090909  3.86421130952381 5.72727272727273  3.94642857142857 6  L 16.6964285714286 6  C 16.7786458333333 5.72727272727273  16.8497953869048 5.77450284090909  16.9098772321429 5.86896306818182  Z M 16.9098772321429 0.14169034090909  C 16.969959077381 0.236150568181818  17 0.348011363636362  17 0.477272727272727  L 17 3.34090909090909  C 17 3.47017045454545  16.969959077381 3.58203125  16.9098772321429 3.67649147727273  C 16.8497953869048 3.77095170454545  16.7786458333333 3.81818181818182  16.6964285714286 4  L 3.94642857142857 4  C 3.86421130952381 3.81818181818182  3.79306175595238 3.77095170454545  3.73297991071429 3.67649147727273  C 3.67289806547619 3.58203125  3.64285714285714 3.47017045454545  3.64285714285714 3.34090909090909  L 3.64285714285714 0.477272727272727  C 3.64285714285714 0.348011363636362  3.67289806547619 0.236150568181818  3.73297991071429 0.14169034090909  C 3.79306175595238 0.0472301136363603  3.86421130952381 0  3.94642857142857 0  L 16.6964285714286 0  C 16.7786458333333 0  16.8497953869048 0.0472301136363603  16.9098772321429 0.14169034090909  Z " fill-rule="nonzero" fill="url(#RadialGradient1)" stroke="none" transform="matrix(1 0 0 1 75 566 )" />
  </g>
</svg>