<?xml version="1.0" encoding="utf-8"?>
<svg version="1.1" xmlns:xlink="http://www.w3.org/1999/xlink" width="15px" height="8px" xmlns="http://www.w3.org/2000/svg">
  <g transform="matrix(1 0 0 1 -196 -181 )">
    <path d="M 14.8496993987976 0.824742268041237  C 14.9498997995992 0.916380297823594  15 1.02176403207331  15 1.14089347079038  C 15 1.26002290950744  14.9498997995992 1.36540664375716  14.8496993987976 1.45704467353952  L 7.84569138276553 7.86254295532646  C 7.74549098196393 7.95418098510882  7.63026052104208 8  7.5 8  C 7.36973947895792 8  7.25450901803607 7.95418098510882  7.15430861723447 7.86254295532646  L 0.150300601202405 1.45704467353952  C 0.0501002004008018 1.36540664375716  0 1.26002290950744  0 1.14089347079038  C 0 1.02176403207331  0.0501002004008018 0.916380297823594  0.150300601202405 0.824742268041237  L 0.901803607214429 0.13745704467354  C 1.00200400801603 0.0458190148911788  1.11723446893788 0  1.24749498997996 0  C 1.37775551102204 0  1.49298597194389 0.0458190148911788  1.59318637274549 0.13745704467354  L 7.5 5.53951890034364  L 13.4068136272545 0.13745704467354  C 13.5070140280561 0.0458190148911788  13.622244488978 0  13.75250501002 0  C 13.8827655310621 0  13.997995991984 0.0458190148911788  14.0981963927856 0.13745704467354  L 14.8496993987976 0.824742268041237  Z " fill-rule="nonzero" fill="#555555" stroke="none" transform="matrix(1 0 0 1 196 181 )" />
  </g>
</svg>