<?xml version="1.0" encoding="utf-8"?>
<svg version="1.1" xmlns:xlink="http://www.w3.org/1999/xlink" width="15px" height="16px" xmlns="http://www.w3.org/2000/svg">
  <g transform="matrix(1 0 0 1 -76 -175 )">
    <path d="M 12.5 4.57142857142857  C 12.5 5.44642857142857  12.2428385416667 6.25595238095238  11.728515625 7  C 12.0345052083333 7.08333333333333  12.3258463541667 7.19642857142857  12.6025390625 7.33928571428571  C 12.8792317708333 7.48214285714286  13.1689453125 7.69940476190476  13.4716796875 7.99107142857143  C 13.7744140625 8.28273809523809  14.033203125 8.62648809523809  14.248046875 9.02232142857143  C 14.462890625 9.41815476190476  14.6419270833333 9.93005952380952  14.78515625 10.5580357142857  C 14.9283854166667 11.1860119047619  15 11.889880952381  15 12.6696428571429  C 15 13.5863095238095  14.6744791666667 14.3705357142857  14.0234375 15.0223214285714  C 13.3723958333333 15.6741071428571  12.587890625 16  11.669921875 16  L 3.330078125 16  C 2.412109375 16  1.62760416666667 15.6741071428571  0.9765625 15.0223214285714  C 0.325520833333333 14.3705357142857  0 13.5863095238095  0 12.6696428571429  C 0 11.889880952381  0.0716145833333333 11.1860119047619  0.21484375 10.5580357142857  C 0.358072916666667 9.93005952380952  0.537109375 9.41815476190476  0.751953125 9.02232142857143  C 0.966796875 8.62648809523809  1.2255859375 8.28273809523809  1.5283203125 7.99107142857143  C 1.8310546875 7.69940476190476  2.12076822916667 7.48214285714286  2.3974609375 7.33928571428571  C 2.67415364583333 7.19642857142857  2.96549479166667 7.08333333333333  3.271484375 7  C 2.75716145833333 6.25595238095238  2.5 5.44642857142857  2.5 4.57142857142857  C 2.5 3.95238095238095  2.6318359375 3.36160714285714  2.8955078125 2.79910714285714  C 3.1591796875 2.23660714285714  3.515625 1.75  3.96484375 1.33928571428571  C 4.4140625 0.928571428571429  4.9462890625 0.602678571428571  5.5615234375 0.361607142857142  C 6.1767578125 0.120535714285714  6.82291666666667 0  7.5 0  C 8.17708333333333 0  8.8232421875 0.120535714285714  9.4384765625 0.361607142857142  C 10.0537109375 0.602678571428571  10.5859375 0.928571428571429  11.03515625 1.33928571428571  C 11.484375 1.75  11.8408203125 2.23660714285714  12.1044921875 2.79910714285714  C 12.3681640625 3.36160714285714  12.5 3.95238095238095  12.5 4.57142857142857  Z M 10.1513671875 2.14732142857143  C 9.4189453125 1.47767857142857  8.53515625 1.14285714285714  7.5 1.14285714285714  C 6.46484375 1.14285714285714  5.5810546875 1.47767857142857  4.8486328125 2.14732142857143  C 4.1162109375 2.81696428571429  3.75 3.625  3.75 4.57142857142857  C 3.75 5.51785714285714  4.1162109375 6.32589285714286  4.8486328125 6.99553571428571  C 5.5810546875 7.66517857142857  6.46484375 8  7.5 8  C 8.53515625 8  9.4189453125 7.66517857142857  10.1513671875 6.99553571428571  C 10.8837890625 6.32589285714286  11.25 5.51785714285714  11.25 4.57142857142857  C 11.25 3.625  10.8837890625 2.81696428571429  10.1513671875 2.14732142857143  Z M 3.330078125 14.8571428571429  L 11.669921875 14.8571428571429  C 12.2428385416667 14.8571428571429  12.7327473958333 14.6443452380952  13.1396484375 14.21875  C 13.5465494791667 13.7931547619048  13.75 13.2767857142857  13.75 12.6696428571429  C 13.75 11.2470238095238  13.4944661458333 10.125  12.9833984375 9.30357142857143  C 12.4723307291667 8.48214285714286  11.73828125 8.05059523809524  10.78125 8.00892857142857  C 9.83723958333333 8.76488095238095  8.74348958333333 9.14285714285714  7.5 9.14285714285714  C 6.25651041666667 9.14285714285714  5.16276041666667 8.76488095238095  4.21875 8.00892857142857  C 3.26171875 8.05059523809524  2.52766927083333 8.48214285714286  2.0166015625 9.30357142857143  C 1.50553385416667 10.125  1.25 11.2470238095238  1.25 12.6696428571429  C 1.25 13.2767857142857  1.45345052083333 13.7931547619048  1.8603515625 14.21875  C 2.26725260416667 14.6443452380952  2.75716145833333 14.8571428571429  3.330078125 14.8571428571429  Z " fill-rule="nonzero" fill="#000000" stroke="none" transform="matrix(1 0 0 1 76 175 )" />
  </g>
</svg>