<?xml version="1.0" encoding="utf-8"?>
<svg version="1.1" xmlns:xlink="http://www.w3.org/1999/xlink" width="15px" height="13px" xmlns="http://www.w3.org/2000/svg">
  <g transform="matrix(1 0 0 1 -113 -227 )">
    <path d="M 7.144775390625 5.5478515625  C 6.595458984375 6.1826171875  5.9326171875 6.5  5.15625 6.5  C 4.3798828125 6.5  3.717041015625 6.1826171875  3.167724609375 5.5478515625  C 2.618408203125 4.9130859375  2.34375 4.14713541666667  2.34375 3.25  C 2.34375 2.35286458333333  2.618408203125 1.5869140625  3.167724609375 0.9521484375  C 3.717041015625 0.3173828125  4.3798828125 0  5.15625 0  C 5.9326171875 0  6.595458984375 0.3173828125  7.144775390625 0.9521484375  C 7.694091796875 1.5869140625  7.96875 2.35286458333333  7.96875 3.25  C 7.96875 4.14713541666667  7.694091796875 4.9130859375  7.144775390625 5.5478515625  Z M 12.1875 4.60416666666667  L 12.1875 7.58333333333333  L 14.765625 7.58333333333333  C 14.8291015625 7.58333333333333  14.884033203125 7.61013454861111  14.930419921875 7.66373697916667  C 14.976806640625 7.71733940972222  15 7.78081597222222  15 7.85416666666667  L 15 9.47916666666667  C 15 9.55251736111111  14.976806640625 9.61599392361111  14.930419921875 9.66959635416667  C 14.884033203125 9.72319878472222  14.8291015625 9.75  14.765625 9.75  L 12.1875 9.75  L 12.1875 12.7291666666667  C 12.1875 12.8025173611111  12.164306640625 12.8659939236111  12.117919921875 12.9195963541667  C 12.071533203125 12.9731987847222  12.0166015625 13  11.953125 13  L 10.546875 13  C 10.4833984375 13  10.428466796875 12.9731987847222  10.382080078125 12.9195963541667  C 10.335693359375 12.8659939236111  10.3125 12.8025173611111  10.3125 12.7291666666667  L 10.3125 9.75  L 7.734375 9.75  C 7.6708984375 9.75  7.615966796875 9.72319878472222  7.569580078125 9.66959635416667  C 7.523193359375 9.61599392361111  7.5 9.55251736111111  7.5 9.47916666666667  L 7.5 7.85416666666667  C 7.5 7.78081597222222  7.523193359375 7.71733940972222  7.569580078125 7.66373697916667  C 7.615966796875 7.61013454861111  7.6708984375 7.58333333333333  7.734375 7.58333333333333  L 10.3125 7.58333333333333  L 10.3125 4.60416666666667  C 10.3125 4.53081597222222  10.335693359375 4.46733940972222  10.382080078125 4.41373697916667  C 10.428466796875 4.36013454861111  10.4833984375 4.33333333333333  10.546875 4.33333333333333  L 11.953125 4.33333333333333  C 12.0166015625 4.33333333333333  12.071533203125 4.36013454861111  12.117919921875 4.41373697916667  C 12.164306640625 4.46733940972222  12.1875 4.53081597222222  12.1875 4.60416666666667  Z M 6.796875 7.85416666666667  L 6.796875 9.47916666666667  C 6.796875 9.77256944444444  6.8896484375 10.0264756944444  7.0751953125 10.2408854166667  C 7.2607421875 10.4552951388889  7.48046875 10.5625  7.734375 10.5625  L 9.609375 10.5625  L 9.609375 12.5768229166667  C 9.27734375 12.8589409722222  8.85986328125 13  8.35693359375 13  L 1.95556640625 13  C 1.36474609375 13  0.89111328125 12.8053385416667  0.53466796875 12.416015625  C 0.17822265625 12.0266927083333  0 11.4906684027778  0 10.8079427083333  C 0 10.5088975694444  0.008544921875 10.2169053819444  0.025634765625 9.93196614583333  C 0.042724609375 9.64702690972222  0.076904296875 9.33951822916667  0.128173828125 9.00944010416667  C 0.179443359375 8.67936197916667  0.244140625 8.37326388888889  0.322265625 8.09114583333333  C 0.400390625 7.80902777777778  0.50537109375 7.53396267361111  0.63720703125 7.26595052083333  C 0.76904296875 6.99793836805556  0.92041015625 6.76942274305556  1.09130859375 6.58040364583333  C 1.26220703125 6.39138454861111  1.470947265625 6.24045138888889  1.717529296875 6.12760416666667  C 1.964111328125 6.01475694444444  2.236328125 5.95833333333333  2.5341796875 5.95833333333333  C 2.626953125 5.95833333333333  2.72216796875 6.00629340277778  2.81982421875 6.10221354166667  C 3.20556640625 6.44639756944444  3.582763671875 6.70453559027778  3.951416015625 6.87662760416667  C 4.320068359375 7.04871961805556  4.7216796875 7.134765625  5.15625 7.134765625  C 5.5908203125 7.134765625  5.992431640625 7.04871961805556  6.361083984375 6.87662760416667  C 6.729736328125 6.70453559027778  7.10693359375 6.44639756944444  7.49267578125 6.10221354166667  C 7.59033203125 6.00629340277778  7.685546875 5.95833333333333  7.7783203125 5.95833333333333  C 8.4228515625 5.95833333333333  8.95263671875 6.22916666666667  9.36767578125 6.77083333333333  L 7.734375 6.77083333333333  C 7.48046875 6.77083333333333  7.2607421875 6.87803819444444  7.0751953125 7.09244791666667  C 6.8896484375 7.30685763888889  6.796875 7.56076388888889  6.796875 7.85416666666667  Z " fill-rule="nonzero" fill="#000000" stroke="none" transform="matrix(1 0 0 1 113 227 )" />
  </g>
</svg>