<?xml version="1.0" encoding="utf-8"?>
<svg version="1.1" xmlns:xlink="http://www.w3.org/1999/xlink" width="40px" height="40px" xmlns="http://www.w3.org/2000/svg">
  <defs>
    <filter x="1044px" y="970px" width="40px" height="40px" filterUnits="userSpaceOnUse" id="filter5">
      <feOffset dx="1" dy="1" in="SourceAlpha" result="shadowOffsetInner" />
      <feGaussianBlur stdDeviation="2.5" in="shadowOffsetInner" result="shadowGaussian" />
      <feComposite in2="shadowGaussian" operator="atop" in="SourceAlpha" result="shadowComposite" />
      <feColorMatrix type="matrix" values="0 0 0 0 0  0 0 0 0 0  0 0 0 0 0  0 0 0 0.698039215686274 0  " in="shadowComposite" />
    </filter>
    <g id="widget6">
      <path d="M 1063 974  C 1071.4 974  1078 980.6  1078 989  C 1078 997.4  1071.4 1004  1063 1004  C 1054.6 1004  1048 997.4  1048 989  C 1048 980.6  1054.6 974  1063 974  Z " fill-rule="nonzero" fill="#009dd9" stroke="none" />
      <path d="M 1063 974.5  C 1071.12 974.5  1077.5 980.88  1077.5 989  C 1077.5 997.12  1071.12 1003.5  1063 1003.5  C 1054.88 1003.5  1048.5 997.12  1048.5 989  C 1048.5 980.88  1054.88 974.5  1063 974.5  Z " stroke-width="1" stroke="#ffffff" fill="none" />
    </g>
  </defs>
  <g transform="matrix(1 0 0 1 -1044 -970 )">
    <use xlink:href="#widget6" filter="url(#filter5)" />
    <use xlink:href="#widget6" />
  </g>
</svg>